<svg version="1.1"
    xmlns="http://www.w3.org/2000/svg"
    xmlns:xlink="http://www.w3.org/1999/xlink" x="0px" y="0px" viewBox="0 0 350 52" enable-background="new 0 0 350 52" xml:space="preserve">
    <path fill-rule="evenodd" clip-rule="evenodd" fill="#201d5d" d="M169.9,27.5h0.9v-20h-0.9V27.5z M218.5,18.4h-4.3
	c-0.1,0-0.1,0-0.1-0.1l2-5.6c0.1-0.3,0.2-0.3,0.4,0l2.1,5.6C218.6,18.3,218.6,18.4,218.5,18.4z M224.8,24.6c-0.2,0-0.5,0-0.8-0.1
	c-0.5-0.1-1-0.4-1.8-2.2c-1.3-3.1-4.7-11.6-5-12.4c-0.2-0.5-0.3-0.7-0.5-0.7c-0.1,0-0.2,0.1-0.5,0.8l-4.9,12.8
	c-0.4,1-0.8,1.8-1.8,1.9c-0.2,0-0.5,0-0.6,0c-0.1,0-0.2,0.1-0.2,0.2c0,0.1,0.1,0.2,0.4,0.2c0.9,0,1.9-0.1,2.1-0.1
	c0.2,0,1.4,0.1,1.9,0.1c0.2,0,0.3,0,0.3-0.2c0-0.1,0-0.2-0.2-0.2h-0.2c-0.4,0-0.7-0.1-0.7-0.6c0-0.4,0.1-0.9,0.3-1.4l1.2-3.3
	c0.1-0.1,0.1-0.2,0.2-0.2h4.9c0.1,0,0.1,0,0.2,0.1l1.9,4.7c0.1,0.3-0.1,0.5-0.2,0.6c-0.1,0-0.1,0-0.1,0.1c0,0.1,0.3,0.1,0.7,0.1
	c1.5,0,3,0,3.3,0c0.2,0,0.5,0,0.5-0.2C225.1,24.6,224.9,24.6,224.8,24.6z M203.2,17.5c-0.4,0-0.5,0-0.5,0.2c0,0.1,0.1,0.2,0.2,0.2
	c0.1,0,0.5,0,0.6,0c3.2,0,5.4-1.9,5.4-4.9c0-1.1-0.6-2-1.1-2.5c-0.4-0.3-1.3-1.2-4-1.2c-1,0-2.5,0-3,0c-0.2,0-1.5,0-2.4,0
	c-0.2,0-0.3,0-0.3,0.2c0,0.1,0.1,0.2,0.2,0.2c0.2,0,0.6,0,0.7,0c0.7,0.1,0.8,0.4,0.9,1.1c0,0.6,0,1.2,0,4.4V19c0,2,0,3.6-0.1,4.4
	c-0.1,0.6-0.1,1-0.5,1.1c-0.2,0-0.5,0.1-0.6,0.1c-0.1,0-0.2,0.1-0.2,0.2c0,0.1,0.1,0.2,0.3,0.2c0.6,0,2-0.1,2.1-0.1
	c0.1,0,1.5,0.1,2.6,0.1c0.2,0,0.3-0.1,0.3-0.2c0-0.1,0-0.2-0.2-0.2c-0.2,0-0.6,0-0.9-0.1c-0.7-0.1-0.8-0.5-0.8-1.1
	c-0.1-0.8-0.1-2.5-0.1-4.4v-8.3c0-0.2,0-0.4,0.2-0.4c0.2,0,0.8-0.1,1.2-0.1c0.5,0,1.7-0.1,2.8,1c1.1,1.1,1.2,2.4,1.2,3.1
	C207.1,16.1,205.5,17.5,203.2,17.5z M194.8,24.6c-0.2,0-0.6,0-1-0.1c-0.6-0.1-0.7-0.5-0.8-1.1C193,22.6,193,21,193,19v-3.6
	c0-3.2,0-3.8,0-4.4c0-0.7,0.2-1,0.7-1.1c0.2-0.1,0.4-0.1,0.5-0.1c0.1,0,0.2-0.1,0.2-0.2c0-0.1-0.1-0.2-0.3-0.2c-0.6,0-2,0-2.1,0
	c-0.1,0-1.4,0-2.1,0c-0.2,0-0.3,0-0.3,0.2c0,0.1,0.1,0.2,0.2,0.2c0.1,0,0.4,0,0.6,0.1c0.5,0.1,0.6,0.4,0.7,1.1
	c0.1,0.6,0.1,1.2,0.1,4.4V19c0,2,0,3.6-0.1,4.4c-0.1,0.6-0.1,1-0.6,1.1c-0.2,0-0.5,0.1-0.6,0.1c-0.1,0-0.2,0.1-0.2,0.2
	c0,0.1,0.1,0.2,0.3,0.2c0.6,0,2-0.1,2.1-0.1c0.1,0,1.5,0.1,2.6,0.1c0.2,0,0.3-0.1,0.3-0.2C195,24.7,194.9,24.6,194.8,24.6z
	 M182.2,16.1l-0.6-0.4c-2.1-1.4-2.7-2.2-2.7-3.5c0-1.4,1.3-2.2,2.8-2.2c1.9,0,2.6,0.8,2.7,1c0.1,0.2,0.3,0.8,0.3,1
	c0,0.2,0,0.3,0.2,0.3c0.1,0,0.2-0.1,0.2-0.5c0-1.4,0.1-2.1,0.1-2.2c0-0.1,0-0.1-0.2-0.1c-0.2,0-0.3,0-0.7-0.1
	c-0.5-0.1-1.3-0.2-2.2-0.2c-2.8,0-4.7,1.4-4.7,3.8c0,1.4,0.7,2.7,3,4.4l1,0.7c1.9,1.4,2.7,2.1,2.7,3.6c0,1.5-1.1,2.7-3.2,2.7
	c-1.4,0-3-0.5-3.3-2c-0.1-0.3-0.1-0.6-0.1-0.7c0-0.2-0.1-0.2-0.2-0.2c-0.1,0-0.2,0.1-0.2,0.3c0,0.3-0.1,1.2-0.1,2.2
	c0,0.6,0,0.6,0.3,0.8c0.9,0.4,2.1,0.6,3.1,0.6c1.2,0,2.5-0.1,3.3-0.7c1.5-1,2-2.3,2-3.5C185.6,19.2,184.7,17.8,182.2,16.1z
	 M4.2,24.8H27v-2.4H4.2V24.8z M28,14.2c-1.5,2.6-2.9,5.1-4.7,5.1c-0.5,0-1.5-0.5-1.1-1.9l1.7-1.8c0.1-0.1,0.2-0.3,0.1-0.5L22.9,13
	c-0.1-0.1-0.2-0.1-0.3,0l-2.3,2.3c-0.1,0.1-0.2,0.3-0.1,0.5l0.7,1.7c-0.3,1.1-1,2-1.9,1.9c-1.6-0.1-3-3.2-1.1-7.7
	c0.3-0.8,0.4-1.4,0.4-1.9C22.1,8,27,6.1,28.8,8.4C29.9,9.8,29.5,11.7,28,14.2z M12.1,19.5c-0.9,0.1-1.6-0.8-1.9-1.9l0.7-1.7
	c0.1-0.2,0-0.4-0.1-0.5l-2.3-2.3c-0.1-0.1-0.3-0.1-0.3,0l-1.1,2.3c-0.1,0.2,0,0.4,0.1,0.5l1.7,1.7c0.4,1.4-0.5,1.9-1.1,1.9
	c-1.8,0-3.3-2.5-4.8-5C1.5,12,1,10.1,2.1,8.7c1.8-2.4,6.7-0.6,10.5,1.1c0,0.5,0.1,1.2,0.4,1.9C15,16.2,13.7,19.4,12.1,19.5z M18.1,8
	c-0.3,0.1-0.6,0-0.8-0.2c-0.2-0.2-0.4-0.3-0.7-0.5c0.7-0.4,1.1-1.2,1.1-2c0-1.2-0.9-2.1-2-2.3l0.9-1.1c0.1-0.1,0.1-0.3,0-0.4
	l-1.1-1.4C15.5,0,15.4,0,15.4,0c-0.1,0-0.1,0-0.2,0.1l-1.1,1.4c-0.1,0.1-0.1,0.3,0,0.4L15,3c-1.1,0.2-2,1.2-2,2.4
	c0,0.9,0.5,1.6,1.2,2c-0.2,0.1-0.4,0.3-0.7,0.5c-0.2,0.2-0.5,0.3-0.8,0.2c-4.9-1.5-9.2-3-11.7-0.5c-2.9,2.9,0.6,7.6,1.7,9.5
	c0.8,1.3,1.3,2.9,1.3,4.2h22.9v-0.3c0-1.3,0.5-2.8,1.2-4.2c1.1-1.9,4.4-6.7,1.5-9.5C27.3,4.8,23,6.4,18.1,8z M155.1,12.8
	c0.1-0.3,0.2-0.3,0.3,0l2,5.4c0,0.1,0,0.1-0.1,0.1h-4.1c-0.1,0-0.1,0-0.1-0.1L155.1,12.8z M148.3,24.7c0.8,0,1.9-0.1,2.1-0.1
	c0.2,0,1.3,0.1,1.8,0.1c0.2,0,0.3,0,0.3-0.2c0-0.1,0-0.2-0.2-0.2h-0.2c-0.3,0-0.7-0.1-0.7-0.5c0-0.3,0.1-0.8,0.3-1.3l1.2-3.2
	c0-0.1,0.1-0.2,0.2-0.2h4.7c0.1,0,0.1,0,0.2,0.1l1.8,4.6c0.1,0.3-0.1,0.5-0.2,0.5c-0.1,0-0.1,0-0.1,0.1c0,0.1,0.3,0.1,0.7,0.1
	c1.4,0,2.9,0,3.2,0c0.2,0,0.5,0,0.5-0.2c0-0.1-0.1-0.2-0.3-0.2c-0.2,0-0.5,0-0.8-0.1c-0.4-0.1-1-0.4-1.7-2.2
	c-1.3-3-4.5-11.2-4.9-12.1c-0.2-0.4-0.3-0.7-0.5-0.7c-0.1,0-0.2,0.1-0.5,0.8l-4.8,12.4c-0.4,1-0.8,1.7-1.7,1.8c-0.2,0-0.5,0-0.6,0
	c-0.1,0-0.2,0.1-0.2,0.2C147.9,24.7,148,24.7,148.3,24.7z M141.7,10c0.1,0,0.4,0,0.6,0.1c0.4,0.1,0.6,0.4,0.6,1.1c0,0.6,0,1.2,0,4.3
	v3.5c0,1.9,0,3.5-0.1,4.3c-0.1,0.6-0.1,1-0.5,1.1c-0.2,0-0.4,0.1-0.6,0.1c-0.1,0-0.2,0.1-0.2,0.2c0,0.1,0.1,0.2,0.3,0.2
	c0.6,0,1.9-0.1,2-0.1c0.1,0,1.4,0.1,2.6,0.1c0.2,0,0.3-0.1,0.3-0.2c0-0.1,0-0.2-0.2-0.2c-0.2,0-0.6,0-0.9-0.1
	c-0.6-0.1-0.7-0.5-0.7-1.1c-0.1-0.8-0.1-2.4-0.1-4.3v-3.5c0-3.1,0-3.6,0-4.3c0-0.7,0.2-1,0.7-1.1c0.2,0,0.4,0,0.5,0
	c0.1,0,0.2-0.1,0.2-0.2c0-0.1-0.1-0.2-0.3-0.2c-0.6,0-1.9,0-2,0c-0.1,0-1.4,0-2.1,0c-0.2,0-0.3,0-0.3,0.2
	C141.5,9.9,141.6,10,141.7,10z M133.7,24.1c-0.4,0-1.2,0-1.8-0.3c-0.6-0.3-0.6-0.5-0.7-1.5c0-0.3,0-2.7,0-4.2v-1.1
	c0-0.1,0-0.1,0.1-0.1c0.3,0,1.3,0,1.6,0c0.5,0.1,1.1,0.1,1.8,0.5c1.6,1,1.9,2.7,1.9,3.6C136.7,23.5,135.1,24.1,133.7,24.1z
	 M131.2,10.6c0-0.1,0.1-0.2,0.3-0.2c0.3-0.1,0.8-0.1,1-0.1c2,0,2.9,1.7,2.9,3.2c0,1-0.3,1.6-0.8,2.1c-0.4,0.5-0.9,0.5-2,0.5
	c-0.8,0-1.1-0.1-1.3-0.1c-0.1,0-0.1-0.1-0.1-0.2V10.6z M135,16.2c1-0.9,2.1-1.9,2.1-3.5c0-1.1-0.9-3-4.3-3c-1,0-1.9,0-2.4,0
	c-0.1,0-1.4,0-2.4,0c-0.2,0-0.3,0-0.3,0.2c0,0.1,0.1,0.1,0.2,0.1c0.2,0,0.5,0,0.7,0c0.7,0.1,0.8,0.5,0.8,1.1c0,0.6,0,1.2,0,4.3v3.5
	c0,1.9,0,3.5-0.1,4.3c-0.1,0.6-0.1,1-0.5,1.1c-0.2,0-0.4,0.1-0.6,0.1c-0.1,0-0.2,0-0.2,0.1c0,0.1,0.1,0.2,0.3,0.2c0.3,0,0.8,0,1.2,0
	c0.4,0,0.8,0,0.8,0c0.1,0,0.7,0,1.3,0c0.7,0,1.4,0.1,1.8,0.1c3.5,0,5.1-2.2,5.1-4.4C138.6,18.1,136.6,16.7,135,16.2z M125.8,24.5
	c0-0.1-0.1-0.1-0.2-0.1c-0.2,0-0.7,0-1.3-0.2c-0.8-0.3-1-1.4-1-2.1l-1.4-12.2c0-0.4-0.2-0.5-0.3-0.5c-0.1,0-0.2,0.1-0.3,0.3
	L115.4,22l-6.2-12.3c-0.1-0.2-0.3-0.3-0.4-0.3c-0.1,0-0.2,0.1-0.2,0.4l-1.5,13c-0.1,0.7-0.1,1.5-0.8,1.6c-0.3,0-0.4,0.1-0.6,0.1
	c-0.1,0-0.2,0.1-0.2,0.1c0,0.1,0.1,0.2,0.4,0.2c0.6,0,1.5-0.1,1.7-0.1c0.2,0,1.1,0.1,1.9,0.1c0.2,0,0.4,0,0.4-0.2
	c0-0.1-0.1-0.1-0.2-0.1c-0.1,0-0.4,0-0.8-0.1c-0.3-0.1-0.5-0.3-0.5-0.6c0-0.3,0-0.7,0-1l0.8-9h0.1c0.3,0.8,2,4.2,2.6,5.4
	c0.5,1.1,1.9,3.6,2.4,4.6c0.4,0.7,0.5,0.9,0.7,0.9c0.2,0,0.3-0.2,0.7-1.1l4.9-10.1h0l1,10.1c0,0.4,0,0.7-0.1,0.7
	c-0.1,0-0.1,0.1-0.1,0.2c0,0.1,0.1,0.2,0.6,0.2c0.7,0.1,3,0.1,3.5,0.1C125.7,24.7,125.8,24.6,125.8,24.5z M103.6,9.7
	c-0.6,0-1.6,0-1.7,0c-0.1,0-1.3,0-2.2,0c-0.2,0-0.3,0-0.3,0.2c0,0.1,0.1,0.2,0.2,0.2c0.2,0,0.5,0,0.7,0c0.7,0.1,0.8,0.5,0.8,1.1
	c0,0.6,0,1.2,0,4.3v2.5c0,2-0.2,3.7-1.2,4.8c-0.7,0.8-1.9,1.4-3.2,1.4c-1.2,0-2-0.2-3-1.1c-0.9-0.8-1.5-2-1.5-4.9v-2.8
	c0-3.1,0-3.6,0-4.3c0-0.7,0.2-1,0.7-1.1c0.3,0,0.4,0,0.5,0c0.1,0,0.2-0.1,0.2-0.2c0-0.1-0.1-0.2-0.3-0.2c-0.6,0-1.9,0-2.1,0
	c-0.2,0-1.4,0-2.3,0c-0.2,0-0.3,0-0.3,0.2c0,0.1,0.1,0.2,0.2,0.2c0.2,0,0.5,0,0.7,0c0.7,0.1,0.8,0.5,0.8,1.1c0,0.6,0,1.2,0,4.3v2.9
	c0,2.9,0.8,4.3,1.8,5.2c1.4,1.4,3.6,1.4,4.2,1.4c1.2,0,2.8-0.2,4.3-1.5c1.6-1.4,1.9-3.8,1.9-6v-2.1c0-3.1,0-3.6,0-4.3
	c0-0.7,0.2-1,0.7-1.1c0.3,0,0.4,0,0.5,0c0.1,0,0.2-0.1,0.2-0.2C104,9.7,103.9,9.7,103.6,9.7z M87.1,24.2c0.2-0.6,0.3-1.8,0.3-2
	c0-0.2,0-0.3-0.1-0.3c-0.1,0-0.2,0.1-0.2,0.3c-0.1,0.4-0.2,0.8-0.5,1.1c-0.5,0.6-1.4,0.6-2.5,0.6c-1.6,0-2.4-0.1-2.7-0.5
	c-0.4-0.4-0.4-1.5-0.4-4.5v-3.6c0-3.1,0-3.6,0-4.3c0-0.7,0.2-1,0.8-1.1c0.2,0,0.5,0,0.7,0c0.1,0,0.2-0.1,0.2-0.1
	c0-0.1-0.1-0.2-0.3-0.2c-0.6,0-2.2,0-2.3,0c-0.1,0-1.4,0-2.3,0c-0.2,0-0.3,0-0.3,0.2c0,0.1,0.1,0.2,0.2,0.2c0.2,0,0.5,0,0.7,0
	c0.7,0.1,0.8,0.4,0.8,1.1c0,0.6,0,1.2,0,4.3v3.5c0,1.9,0,3.5-0.1,4.3c-0.1,0.6-0.1,1-0.5,1.1c-0.2,0-0.4,0.1-0.6,0.1
	c-0.1,0-0.2,0.1-0.2,0.2c0,0.1,0.1,0.2,0.3,0.2c0.3,0,0.8,0,1.2,0c0.4,0,0.7,0,0.8,0c0.6,0,1.3,0,2.2,0c1,0,2.1,0.1,3.6,0.1
	C86.9,24.8,86.9,24.7,87.1,24.2z M67.2,24.1c-3.7,0-6.5-2.9-6.5-7.5c0-4.3,2.5-6.5,5.9-6.5c3.2,0,6.1,2.5,6.1,7.3
	C72.7,23.2,69,24.1,67.2,24.1z M74.8,16.9c0-4.6-3.5-7.5-8.1-7.5c-5.6,0-8.1,4.6-8.1,7.8c0,3.6,2.4,7.8,8,7.8
	C71.5,25,74.8,21.3,74.8,16.9z M50.9,25c1.5,0,3.2-0.2,4.2-0.5c0.4-0.2,0.5-0.2,0.6-0.7c0.2-0.8,0.5-2.8,0.5-3c0-0.2,0-0.4-0.2-0.4
	c-0.1,0-0.2,0.1-0.2,0.4c-0.1,0.4-0.4,1.4-0.9,2c-0.9,1-2.3,1.2-4,1.2c-5,0-8.4-4.1-8.4-8.6c0-2.4,0.4-4.5,2.1-6.1
	c0.8-0.8,2.2-1.7,5.3-1.7c2,0,3.8,0.6,4.6,1.3c0.6,0.5,1,1.5,1,2.4c0,0.3,0,0.5,0.2,0.5c0.1,0,0.2-0.1,0.2-0.5c0-0.4,0-1.6,0.1-2.4
	c0-0.8,0.1-1.1,0.1-1.3c0-0.1,0-0.2-0.3-0.3c-0.7,0-1.5-0.2-2.4-0.4c-1.1-0.2-2.4-0.3-3.4-0.3c-3.6,0-5.7,1.1-7.1,2.5
	c-2.1,2.1-2.6,4.8-2.6,6.4c0,2.2,0.6,4.9,2.8,6.9C45.1,24.2,47.4,25,50.9,25z M348,47.1c-0.7-0.4-1.5-0.8-1.5-1.6
	c0-0.7,0.5-1.1,1.2-1.1c0.8,0,1.4,0.5,1.7,1.4c0.1,0.1,0.4,0.1,0.5-0.1c0-0.5-0.1-1.1-0.3-1.5c-0.2-0.1-0.9-0.3-1.7-0.3
	c-1.5,0-2.6,0.8-2.6,2.1c0,1,0.8,1.7,1.9,2.3c0.7,0.4,1.5,0.9,1.5,1.7c0,0.8-0.6,1.2-1.3,1.2c-1.1,0-1.7-0.9-2-1.9
	c-0.1-0.1-0.3-0.1-0.4,0c0,0.6,0.1,1.5,0.2,1.9c0.5,0.4,1.2,0.6,2.1,0.6c1.4,0,2.8-0.7,2.8-2.1C350,48.3,349.1,47.7,348,47.1z
	 M343.4,43.9c-0.7,0-1.4,0.6-2.1,1.1c0,0-0.1-0.1-0.1-0.2v-1.1c0-0.1-0.1-0.1-0.2-0.1c-0.5,0.3-1.5,0.8-2,0.9
	c-0.1,0.1-0.1,0.3,0,0.3l0.2,0.1c0.5,0.3,0.5,0.4,0.5,1.2v3.3c0,1.4,0,1.5-0.7,1.6l-0.4,0.1c-0.1,0.1-0.1,0.4,0,0.5
	c0.5,0,1.1-0.1,1.8-0.1c0.7,0,1.2,0,2.1,0.1c0.1-0.1,0.2-0.4,0-0.5l-0.7-0.1c-0.7-0.1-0.8-0.3-0.8-1.6v-2.6c0-0.6,0.1-1.2,0.3-1.4
	c0.2-0.2,0.4-0.4,0.7-0.4c0.3,0,0.6,0.1,0.9,0.3c0.1,0.1,0.2,0.1,0.4,0.1c0.3,0,0.8-0.2,0.8-0.9C344.3,44.2,343.9,43.9,343.4,43.9z
	 M337,51.1c-0.7-0.1-0.7-0.3-0.7-1.6v-3.4c0-0.8,0-1.7,0.1-2.3c0-0.1-0.1-0.1-0.2-0.1c-0.4,0.3-1.5,0.8-2,0.9
	c-0.1,0.1-0.1,0.3,0,0.3l0.2,0.1c0.5,0.3,0.5,0.4,0.5,1.2v3.3c0,1.4,0,1.5-0.7,1.6l-0.4,0.1c-0.1,0.1-0.1,0.4,0,0.5
	c0.5,0,1.1-0.1,1.8-0.1c0.7,0,1.2,0,1.8,0.1c0.1-0.1,0.2-0.4,0-0.5L337,51.1z M335.4,41c0.5,0,1-0.3,1-1c0-0.5-0.4-1-0.9-1
	c-0.6,0-1,0.4-1,1C334.4,40.6,334.8,41,335.4,41z M329.9,49.6c0,0.4,0,0.7-0.3,0.9c-0.2,0.2-0.8,0.5-1.2,0.5c-1,0-1.2-0.8-1.2-1.1
	c0-0.7,0.6-1,1.7-1.4c0.3-0.1,0.7-0.2,0.8-0.2c0.1,0,0.2,0,0.2,0.2L329.9,49.6z M333,50.7c-0.1,0-0.2,0.1-0.3,0.1
	c-0.1,0.1-0.3,0.1-0.5,0.1c-0.8,0-0.9-0.8-0.9-1.6l0.1-3.3c0.1-1.4-0.6-2.2-2-2.2c-1.4,0-3.6,1.3-3.6,2.3c0,0.2,0.1,0.3,0.3,0.3
	c0.3,0,0.8-0.1,1.1-0.4c0.2-0.1,0.2-0.3,0.2-0.6c0-0.6,0.7-0.8,1.2-0.8c1.2,0,1.4,0.9,1.4,1.6l0,0.9c0,0.3,0,0.4-0.3,0.5l-2.3,0.8
	c-1.2,0.4-1.6,0.9-1.6,1.6c0,0.5,0.2,1,0.6,1.3c0.3,0.3,0.8,0.4,1.4,0.4c0.5,0,1-0.2,1.4-0.5c0.4-0.2,0.6-0.4,0.8-0.4
	c0.1,0,0.2,0.2,0.3,0.3c0.3,0.4,0.8,0.6,1.3,0.6c0.9,0,1.6-0.7,1.6-0.8C333.1,50.9,333,50.7,333,50.7z M323.1,44.1
	c-0.3,0-0.3,0-0.3-0.5v-0.5c0-0.9,0.1-2.3,0.4-3.2c0.3-0.7,0.8-1,1.4-1c0.6,0,1.2,0.4,1.6,0.8c0.1,0.1,0.2,0.2,0.5,0.2
	c0.4,0,0.7-0.3,0.7-0.7c0-0.7-0.9-1.1-1.9-1.1c-1.9,0-3,1.3-3.5,2.4c-0.5,1.1-0.6,2.2-0.6,3.3c0,0.2-0.1,0.3-0.3,0.4l-0.8,0.4
	c-0.1,0.1-0.1,0.3,0.1,0.4h0.7c0.4,0,0.4,0,0.4,0.5v4c0,1.4,0,1.5-0.7,1.6l-0.4,0.1c-0.1,0.1-0.1,0.4,0,0.5c0.6,0,1.2-0.1,1.9-0.1
	c0.7,0,1.2,0,2.1,0.1c0.1-0.1,0.2-0.4,0-0.5l-0.7-0.1c-0.7-0.1-0.7-0.3-0.7-1.6v-4c0-0.5,0-0.5,0.3-0.5h2.1c0.2-0.1,0.3-0.6,0.1-0.8
	H323.1z M317.5,44.1c-0.3,0-0.3,0-0.3-0.5v-0.5c0-0.9,0.1-2.3,0.4-3.2c0.3-0.7,0.8-1,1.4-1c0.6,0,1.2,0.4,1.5,0.8
	c0.1,0.1,0.3,0.2,0.5,0.2c0.4,0,0.7-0.3,0.7-0.7c0-0.7-0.9-1.1-1.9-1.1c-1.9,0-3,1.3-3.5,2.4c-0.5,1.1-0.6,2.2-0.6,3.3
	c0,0.2-0.1,0.3-0.3,0.4l-0.8,0.4c-0.1,0.1-0.1,0.3,0.1,0.4h0.7c0.4,0,0.4,0,0.4,0.5v4c0,1.4,0,1.5-0.7,1.6l-0.4,0.1
	c-0.1,0.1-0.1,0.4,0,0.5c0.6,0,1.2-0.1,1.9-0.1c0.7,0,1.2,0,2.1,0.1c0.1-0.1,0.2-0.4,0-0.5l-0.7-0.1c-0.7-0.1-0.7-0.3-0.7-1.6v-4
	c0-0.5,0-0.5,0.3-0.5h2.1c0.2-0.1,0.3-0.6,0.1-0.8H317.5z M308.7,46h-2.4c-0.5,0-0.6,0-0.4-0.5l1.2-3.3c0.2-0.6,0.4-1,0.5-1.1h0
	c0.1,0.2,0.3,0.7,0.4,1.2l1,3.1C309.3,45.9,309.3,46,308.7,46z M313.7,51.1c-0.8-0.1-1.1-0.4-1.6-2l-2.7-7.6
	c-0.3-0.8-0.6-1.7-0.9-2.5c0-0.1-0.2-0.2-0.3-0.2c-0.2,0.2-0.5,0.6-1,0.7c0.1,0.3-0.1,0.7-0.3,1.3l-2,5.1c-0.8,2.1-1.4,3.3-1.7,4.2
	c-0.3,0.7-0.7,0.9-1.2,0.9l-0.6,0.1c-0.1,0.1-0.1,0.4,0,0.5c0.5,0,1.2-0.1,1.9-0.1c0.9,0,1.5,0,2,0.1c0.2-0.1,0.2-0.4,0-0.5
	l-0.6-0.1c-0.5,0-0.6-0.2-0.6-0.4c0-0.2,0.1-0.7,0.4-1.6l0.7-2c0.1-0.4,0.2-0.5,0.7-0.5h2.9c0.6,0,0.7,0.1,0.8,0.5l0.8,2.6
	c0.2,0.5,0.3,0.8,0.3,1c0,0.2-0.3,0.3-0.7,0.3l-0.6,0.1c-0.1,0.1-0.1,0.4,0,0.5c0.6,0,1.3-0.1,2.2-0.1c0.9,0,1.5,0,2.3,0.1
	c0.1-0.1,0.1-0.4,0-0.5L313.7,51.1z M296.7,49.6c-0.4,0.6-1,1.1-2.1,1.1c-2.1,0-3.1-1.7-3.1-3.2c0-2,1.3-3,2.7-3
	c0.8,0,1.5,0.5,1.9,1c0.1,0.1,0.2,0.1,0.3,0.1c0.2,0,0.4-0.4,0.4-0.7c0-0.3-0.1-0.6-0.3-0.8c-0.5-0.2-1.3-0.3-1.7-0.3
	c-3.2,0-4.7,2.2-4.7,4.2c0,1.2,0.4,2.1,1.1,2.8c0.7,0.6,1.6,1,2.7,1c1.1,0,2.6-0.5,3.2-1.9C297,49.7,296.8,49.6,296.7,49.6z
	 M288.4,51.1c-0.7-0.1-0.7-0.3-0.7-1.6v-3.4c0-0.8,0-1.7,0.1-2.3c0-0.1-0.1-0.1-0.2-0.1c-0.4,0.3-1.5,0.8-2,0.9
	c-0.1,0.1-0.1,0.3,0,0.3l0.2,0.1c0.5,0.3,0.5,0.4,0.5,1.2v3.3c0,1.4,0,1.5-0.7,1.6l-0.4,0.1c-0.1,0.1-0.1,0.4,0,0.5
	c0.5,0,1.1-0.1,1.8-0.1c0.7,0,1.2,0,1.8,0.1c0.1-0.1,0.2-0.4,0-0.5L288.4,51.1z M286.8,41c0.5,0,1-0.3,1-1c0-0.5-0.4-1-0.9-1
	c-0.6,0-1,0.4-1,1C285.8,40.6,286.2,41,286.8,41z M283.4,51.1c-0.7-0.1-0.7-0.3-0.7-1.6v-8.9c0-0.8,0-1.8,0.1-2.3
	c0-0.1-0.1-0.1-0.2-0.1c-0.7,0.4-1.6,0.6-2.1,0.8c-0.1,0.1-0.1,0.3,0,0.4l0.2,0.1c0.6,0.3,0.6,0.5,0.6,1.6v8.5c0,1.4,0,1.5-0.7,1.6
	l-0.4,0.1c-0.1,0.1-0.1,0.4,0,0.5c0.6,0,1.2-0.1,1.9-0.1c0.7,0,1.2,0,1.9,0.1c0.1-0.1,0.2-0.4,0-0.5L283.4,51.1z M274.7,51.2
	c-0.6,0-1.1-0.2-1.5-0.6c-0.3-0.4-0.5-1-0.5-1.6v-2.9c0-0.7,0-0.9,0.2-1.1c0.3-0.2,0.7-0.3,1.3-0.3c1.9,0,2.9,1.5,2.9,3.4
	C277.3,49.7,276.5,51.2,274.7,51.2z M275.2,43.9c-0.9,0-1.7,0.3-2.2,0.6c-0.1,0-0.2-0.1-0.2-0.4v-3.6c0-0.8,0-1.7,0.1-2.3
	c0-0.1-0.1-0.1-0.2-0.1c-0.7,0.4-1.7,0.6-2.1,0.8c-0.1,0.1-0.1,0.3,0,0.4l0.2,0.1c0.6,0.3,0.6,0.5,0.6,1.6v9c0,1,0,1.3,0,1.6
	c0,0.1,0.1,0.1,0.2,0.1c0,0,0.1,0,0.1,0c0.1-0.1,0.3-0.3,0.4-0.3c0.2,0,0.4,0.1,0.8,0.2c0.4,0.1,0.9,0.2,1.6,0.2
	c2.6,0,4.4-1.7,4.4-4.2C278.9,45.5,277.4,43.9,275.2,43.9z M268.8,50.9c-0.5,0-0.6-0.6-0.6-2v-3.2c0-0.7,0-1.3,0.1-1.6
	c0-0.1-0.1-0.1-0.2-0.1c-0.4,0.2-1.5,0.3-2.3,0.3c-0.2,0.1-0.2,0.3,0,0.4l0.3,0.1c0.6,0.2,0.7,0.3,0.7,1.5v3.1
	c0,0.6-0.1,0.9-0.4,1.1c-0.4,0.4-1,0.6-1.6,0.6c-1.5,0-1.8-0.9-1.8-2.2v-3.1c0-0.9,0-1.3,0.1-1.6c0-0.1-0.1-0.1-0.2-0.1
	c-0.4,0.2-1.2,0.3-2.1,0.3c-0.1,0.1-0.2,0.3,0,0.4l0.2,0.1c0.6,0.2,0.6,0.4,0.6,1.6v3.1c0,1.5,0.6,2.4,2.3,2.4c1.1,0,2.1-0.6,2.7-1
	c0.1,0,0.2,0.1,0.2,0.3v0.8c0,0.1,0.1,0.1,0.2,0.1c0.7-0.4,1.8-0.5,2.5-0.7c0.2-0.1,0.1-0.5,0-0.5C269.3,50.8,269.1,50.9,268.8,50.9
	z M258.4,39.8c-0.9-0.5-2.1-0.8-3.7-0.8c-1.6,0-2.8,0-3.8,0.2c-0.2,0.1-0.2,0.4,0,0.5l0.7,0.1c0.9,0.1,0.9,0.4,0.9,2v6.9
	c0,2,0,2.2-1.2,2.4l-0.4,0.1c-0.1,0.1-0.1,0.4,0,0.5c0.9,0,1.5-0.1,2.4-0.1c0.8,0,1.4,0,2.5,0.1c0.1-0.1,0.2-0.4,0-0.5l-0.5-0.1
	c-1.2-0.1-1.3-0.4-1.3-2.4v-8.4c0-0.6,0-0.7,1-0.7c2,0,3.1,1.2,3.1,3c0,1.6-0.8,2.8-2.8,3.2c-0.1,0-0.1,0.3,0,0.4
	c0.8,0,1.8-0.2,2.7-0.6c0.8-0.4,1.9-1.3,1.9-3C259.9,41.4,259.3,40.4,258.4,39.8z M242,49.7c0,0.3,0,0.6-0.1,0.7
	c-0.3,0.3-1,0.5-1.5,0.5c-1.9,0-2.9-1.6-2.9-3.3c0-1.6,0.9-3.1,2.7-3.1c0.8,0,1.3,0.4,1.6,0.8c0.1,0.2,0.2,0.4,0.2,0.7V49.7z
	 M244,51c-0.5,0-0.6-0.7-0.6-2.2v-8.2c0-0.8,0-1.8,0.1-2.3c0-0.1-0.1-0.1-0.2-0.1c-0.7,0.4-1.6,0.6-2.1,0.8c-0.1,0.1-0.1,0.3,0,0.4
	l0.2,0.1c0.6,0.3,0.6,0.4,0.6,1.6v2.8c0,0.2,0,0.3-0.1,0.3c-0.2-0.1-0.6-0.2-1.3-0.2c-2.6,0-4.7,1.7-4.7,4.3c0,2,1.4,3.6,3.6,3.6
	c0.9,0,1.6-0.3,2.4-0.9h0.1c0,0.1,0,0.3,0,0.6v0.3c0,0.1,0.1,0.1,0.2,0.1c0.5-0.2,1.7-0.5,2.6-0.6c0.2-0.1,0.2-0.6,0-0.6
	C244.6,50.9,244.2,51,244,51z M234.4,51.1c-0.7-0.1-0.7-0.3-0.7-1.6v-3.2c0-1.3-0.7-2.3-2.3-2.3c-1,0-1.9,0.5-2.7,1
	c-0.1,0-0.2-0.1-0.2-0.2c0-0.2,0-0.5,0-0.9c0-0.1-0.1-0.1-0.2-0.1c-0.4,0.3-1.5,0.8-1.9,0.9c-0.1,0.1-0.1,0.3,0,0.3l0.2,0.1
	c0.5,0.3,0.5,0.4,0.5,1.2v3.3c0,1.4,0,1.5-0.7,1.6l-0.4,0.1c-0.1,0.1-0.1,0.4,0,0.5c0.5,0,1.1-0.1,1.8-0.1c0.7,0,1.2,0,1.8,0.1
	c0.1-0.1,0.2-0.4,0-0.5l-0.4-0.1c-0.7-0.1-0.7-0.3-0.7-1.6v-2.9c0-0.5,0-0.8,0.3-1.1c0.3-0.4,0.9-0.7,1.6-0.7c1.3,0,1.8,0.8,1.8,1.9
	v2.8c0,1.4,0,1.5-0.7,1.6l-0.4,0.1c-0.1,0.1-0.1,0.4,0,0.5c0.5,0,1.1-0.1,1.8-0.1c0.7,0,1.2,0,1.8,0.1c0.1-0.1,0.2-0.4,0-0.5
	L234.4,51.1z M222.1,49.6c0,0.4,0,0.7-0.3,0.9c-0.2,0.2-0.8,0.5-1.2,0.5c-1,0-1.2-0.8-1.2-1.1c0-0.7,0.6-1,1.7-1.4
	c0.4-0.1,0.7-0.2,0.8-0.2c0.1,0,0.2,0,0.2,0.2L222.1,49.6z M225.1,50.7c-0.1,0-0.2,0.1-0.3,0.1c-0.1,0.1-0.3,0.1-0.5,0.1
	c-0.8,0-0.9-0.8-0.9-1.6l0.1-3.3c0.1-1.4-0.6-2.2-2-2.2c-1.4,0-3.6,1.3-3.6,2.3c0,0.2,0.1,0.3,0.3,0.3c0.3,0,0.8-0.1,1.1-0.4
	c0.2-0.1,0.2-0.3,0.2-0.6c0-0.6,0.7-0.8,1.2-0.8c1.2,0,1.4,0.9,1.4,1.6l0,0.9c0,0.3,0,0.4-0.3,0.5l-2.3,0.8
	c-1.2,0.4-1.6,0.9-1.6,1.6c0,0.5,0.2,1,0.6,1.3c0.3,0.3,0.8,0.4,1.4,0.4c0.5,0,1-0.2,1.4-0.5c0.4-0.2,0.6-0.4,0.8-0.4
	c0.1,0,0.2,0.2,0.3,0.3c0.3,0.4,0.8,0.6,1.3,0.6c0.9,0,1.6-0.7,1.6-0.8C225.3,50.9,225.2,50.7,225.1,50.7z M211.6,51.1
	c-0.7-0.1-0.7-0.3-0.7-1.6v-8.9c0-0.8,0-1.8,0.1-2.3c0-0.1-0.1-0.1-0.2-0.1c-0.7,0.4-1.6,0.6-2.1,0.8c-0.1,0.1-0.1,0.3,0,0.4
	l0.2,0.1c0.6,0.3,0.6,0.5,0.6,1.6v8.5c0,1.4,0,1.5-0.7,1.6l-0.4,0.1c-0.1,0.1-0.1,0.4,0,0.5c0.6,0,1.2-0.1,1.9-0.1
	c0.7,0,1.2,0,1.9,0.1c0.1-0.1,0.2-0.4,0-0.5L211.6,51.1z M204.7,49.6c0,0.4,0,0.7-0.3,0.9c-0.2,0.2-0.8,0.5-1.2,0.5
	c-1,0-1.2-0.8-1.2-1.1c0-0.7,0.6-1,1.7-1.4c0.4-0.1,0.7-0.2,0.8-0.2c0.1,0,0.2,0,0.2,0.2L204.7,49.6z M207.7,50.7
	c-0.1,0-0.2,0.1-0.2,0.1c-0.1,0.1-0.3,0.1-0.5,0.1c-0.8,0-0.9-0.8-0.9-1.6l0.1-3.3c0.1-1.4-0.6-2.2-2-2.2c-1.4,0-3.6,1.3-3.6,2.3
	c0,0.2,0.1,0.3,0.3,0.3c0.3,0,0.8-0.1,1.1-0.4c0.2-0.1,0.2-0.3,0.2-0.6c0-0.6,0.7-0.8,1.2-0.8c1.2,0,1.4,0.9,1.4,1.6l0,0.9
	c0,0.3,0,0.4-0.3,0.5l-2.3,0.8c-1.2,0.4-1.6,0.9-1.6,1.6c0,0.5,0.2,1,0.6,1.3c0.3,0.3,0.8,0.4,1.4,0.4c0.5,0,1-0.2,1.4-0.5
	c0.4-0.2,0.6-0.4,0.8-0.4c0.1,0,0.2,0.2,0.3,0.3c0.3,0.4,0.8,0.6,1.3,0.6c0.9,0,1.6-0.7,1.6-0.8C207.8,50.9,207.8,50.7,207.7,50.7z
	 M199,51.1c-0.7-0.1-0.7-0.3-0.7-1.6v-3.2c0-1.3-0.7-2.3-2.3-2.3c-1,0-1.9,0.5-2.7,1c-0.1,0-0.2-0.1-0.2-0.2c0-0.2,0-0.5,0-0.9
	c0-0.1-0.1-0.1-0.2-0.1c-0.4,0.3-1.5,0.8-1.9,0.9c-0.1,0.1-0.1,0.3,0,0.3l0.2,0.1c0.5,0.3,0.5,0.4,0.5,1.2v3.3c0,1.4,0,1.5-0.7,1.6
	l-0.4,0.1c-0.1,0.1-0.1,0.4,0,0.5c0.5,0,1.1-0.1,1.8-0.1c0.7,0,1.2,0,1.8,0.1c0.1-0.1,0.2-0.4,0-0.5l-0.3-0.1
	c-0.7-0.1-0.7-0.3-0.7-1.6v-2.9c0-0.5,0-0.8,0.3-1.1c0.3-0.4,0.9-0.7,1.6-0.7c1.3,0,1.8,0.8,1.8,1.9v2.8c0,1.4,0,1.5-0.7,1.6
	l-0.4,0.1c-0.1,0.1-0.1,0.4,0,0.5c0.5,0,1.1-0.1,1.8-0.1c0.7,0,1.2,0,1.8,0.1c0.1-0.1,0.2-0.4,0-0.5L199,51.1z M185.2,51.2
	c-1.7,0-2.5-1.8-2.5-3.6c0-2.1,0.9-3.2,2.2-3.2c1.8,0,2.5,2,2.5,3.6C187.4,49.5,186.9,51.2,185.2,51.2z M185.1,43.9
	c-2.3,0-4.1,1.7-4.1,4.1c0,2.3,1.7,3.9,4,3.9c2.4,0,4.1-1.7,4.1-4C189.1,45.5,187.3,43.9,185.1,43.9z M177.8,41c0.5,0,1-0.3,1-1
	c0-0.5-0.4-1-1-1c-0.6,0-1,0.4-1,1C176.9,40.6,177.2,41,177.8,41z M179.4,51.1c-0.7-0.1-0.7-0.3-0.7-1.6v-3.4c0-0.8,0-1.7,0.1-2.3
	c0-0.1-0.1-0.1-0.2-0.1c-0.4,0.3-1.5,0.8-2,0.9c-0.1,0.1-0.1,0.3,0,0.3l0.2,0.1c0.5,0.3,0.5,0.4,0.5,1.2v3.3c0,1.4,0,1.5-0.7,1.6
	l-0.4,0.1c-0.1,0.1-0.1,0.4,0,0.5c0.5,0,1.1-0.1,1.8-0.1c0.7,0,1.2,0,1.8,0.1c0.1-0.1,0.2-0.4,0-0.5L179.4,51.1z M172.9,44.9h2.2
	c0.2-0.1,0.2-0.6,0-0.8h-2.1c-0.3,0-0.3,0-0.3-0.4v-0.8c-0.1-0.1-0.3-0.1-0.4-0.1c-0.2,0.4-0.6,0.9-0.8,1.1
	c-0.2,0.2-0.7,0.4-1.2,0.6c-0.1,0.1-0.1,0.3,0.1,0.4h0.5c0.4,0,0.4,0,0.4,0.5v4.3c0,1.1,0.3,2,2,2c1,0,1.7-0.5,2-0.9
	c0-0.1,0-0.3-0.2-0.3c-0.1,0-0.3,0.2-0.5,0.3c-0.2,0.1-0.3,0.1-0.5,0.1c-1.3,0-1.4-1-1.4-2.1v-3.5C172.6,45,172.6,44.9,172.9,44.9z
	 M166.4,49.6c0,0.4,0,0.7-0.3,0.9c-0.2,0.2-0.8,0.5-1.2,0.5c-1,0-1.2-0.8-1.2-1.1c0-0.7,0.6-1,1.7-1.4c0.3-0.1,0.7-0.2,0.8-0.2
	c0.1,0,0.2,0,0.2,0.2L166.4,49.6z M169.4,50.7c-0.1,0-0.2,0.1-0.3,0.1c-0.1,0.1-0.3,0.1-0.5,0.1c-0.8,0-0.9-0.8-0.9-1.6l0.1-3.3
	c0.1-1.4-0.6-2.2-2-2.2c-1.4,0-3.6,1.3-3.6,2.3c0,0.2,0.1,0.3,0.3,0.3c0.3,0,0.8-0.1,1.1-0.4c0.2-0.1,0.2-0.3,0.2-0.6
	c0-0.6,0.7-0.8,1.2-0.8c1.2,0,1.4,0.9,1.4,1.6l0,0.9c0,0.3,0,0.4-0.3,0.5l-2.3,0.8c-1.2,0.4-1.6,0.9-1.6,1.6c0,0.5,0.2,1,0.6,1.3
	c0.3,0.3,0.8,0.4,1.4,0.4c0.5,0,1-0.2,1.4-0.5c0.4-0.2,0.6-0.4,0.8-0.4c0.1,0,0.2,0.2,0.3,0.3c0.3,0.4,0.8,0.6,1.3,0.6
	c0.9,0,1.6-0.7,1.6-0.8C169.6,50.9,169.5,50.7,169.4,50.7z M160.7,51.1c-0.7-0.1-0.7-0.3-0.7-1.6v-3.2c0-1.3-0.7-2.3-2.3-2.3
	c-1,0-1.9,0.5-2.7,1c-0.1,0-0.2-0.1-0.2-0.2c0-0.2,0-0.5,0-0.9c0-0.1-0.1-0.1-0.2-0.1c-0.4,0.3-1.5,0.8-1.9,0.9
	c-0.1,0.1-0.1,0.3,0,0.3l0.2,0.1c0.5,0.3,0.5,0.4,0.5,1.2v3.3c0,1.4,0,1.5-0.7,1.6l-0.4,0.1c-0.1,0.1-0.1,0.4,0,0.5
	c0.5,0,1.1-0.1,1.8-0.1c0.7,0,1.2,0,1.8,0.1c0.1-0.1,0.2-0.4,0-0.5l-0.3-0.1c-0.7-0.1-0.7-0.3-0.7-1.6v-2.9c0-0.5,0-0.8,0.3-1.1
	c0.3-0.4,0.9-0.7,1.6-0.7c1.3,0,1.8,0.8,1.8,1.9v2.8c0,1.4,0,1.5-0.7,1.6l-0.4,0.1c-0.1,0.1-0.1,0.4,0,0.5c0.5,0,1.1-0.1,1.8-0.1
	c0.7,0,1.2,0,1.8,0.1c0.1-0.1,0.2-0.4,0-0.5L160.7,51.1z M150.6,43.9c-0.7,0-1.4,0.6-2.1,1.1c0,0-0.1-0.1-0.1-0.2v-1.1
	c0-0.1-0.1-0.1-0.2-0.1c-0.5,0.3-1.5,0.8-2,0.9c-0.1,0.1-0.1,0.3,0,0.3l0.2,0.1c0.5,0.3,0.5,0.4,0.5,1.2v3.3c0,1.4,0,1.5-0.7,1.6
	l-0.4,0.1c-0.1,0.1-0.1,0.4,0,0.5c0.5,0,1.1-0.1,1.8-0.1c0.7,0,1.2,0,2.1,0.1c0.1-0.1,0.2-0.4,0-0.5l-0.7-0.1
	c-0.7-0.1-0.8-0.3-0.8-1.6v-2.6c0-0.6,0.1-1.2,0.3-1.4c0.2-0.2,0.4-0.4,0.7-0.4c0.3,0,0.6,0.1,0.9,0.3c0.1,0.1,0.2,0.1,0.4,0.1
	c0.3,0,0.8-0.2,0.8-0.9C151.4,44.2,151,43.9,150.6,43.9z M141.7,44.4c1.1,0,1.5,0.7,1.5,1.2c0,0.2-0.1,0.3-0.1,0.4
	c-0.2,0.1-0.6,0.2-2,0.2h-1.4c-0.1,0-0.1-0.1-0.1-0.1C139.6,45.5,140.6,44.4,141.7,44.4z M144.4,49.8c-0.6,0.7-1.1,0.9-1.8,0.9
	c-2.1,0-3.2-1.6-3.2-3.5c0-0.5,0-0.5,0.5-0.5h3.6c0.8,0,1.1,0,1.1-0.1c0-0.1,0.1-0.2,0.1-0.5c0-1.1-1.1-2.2-2.7-2.2
	c-2.3,0-3.9,1.9-3.9,4.2c0,0.8,0.2,1.7,0.8,2.4c0.6,0.7,1.5,1.2,2.8,1.2c1,0,2.4-0.5,3-1.7C144.7,49.9,144.6,49.8,144.4,49.8z
	 M134.9,44.9h2.2c0.2-0.1,0.2-0.6,0-0.8H135c-0.3,0-0.3,0-0.3-0.4v-0.8c-0.1-0.1-0.3-0.1-0.4-0.1c-0.2,0.4-0.6,0.9-0.8,1.1
	c-0.2,0.2-0.7,0.4-1.2,0.6c-0.1,0.1-0.1,0.3,0.1,0.4h0.5c0.4,0,0.4,0,0.4,0.5v4.3c0,1.1,0.3,2,2,2c1,0,1.7-0.5,2-0.9
	c0-0.1,0-0.3-0.2-0.3c-0.1,0-0.3,0.2-0.5,0.3c-0.2,0.1-0.3,0.1-0.5,0.1c-1.3,0-1.4-1-1.4-2.1v-3.5C134.6,45,134.6,44.9,134.9,44.9z
	 M130.5,51.1c-0.7-0.1-0.7-0.3-0.7-1.6v-3.2c0-1.3-0.7-2.3-2.3-2.3c-1,0-1.9,0.5-2.7,1c-0.1,0-0.2-0.1-0.2-0.2c0-0.2,0-0.5,0-0.9
	c0-0.1-0.1-0.1-0.2-0.1c-0.4,0.3-1.5,0.8-1.9,0.9c-0.1,0.1-0.1,0.3,0,0.3l0.2,0.1c0.5,0.3,0.5,0.4,0.5,1.2v3.3c0,1.4,0,1.5-0.7,1.6
	l-0.4,0.1c-0.1,0.1-0.1,0.4,0,0.5c0.5,0,1.1-0.1,1.8-0.1c0.7,0,1.2,0,1.8,0.1c0.1-0.1,0.2-0.4,0-0.5l-0.4-0.1
	c-0.7-0.1-0.7-0.3-0.7-1.6v-2.9c0-0.5,0-0.8,0.3-1.1c0.3-0.4,0.9-0.7,1.6-0.7c1.3,0,1.8,0.8,1.8,1.9v2.8c0,1.4,0,1.5-0.7,1.6
	l-0.4,0.1c-0.1,0.1-0.1,0.4,0,0.5c0.5,0,1.1-0.1,1.8-0.1c0.7,0,1.2,0,1.8,0.1c0.1-0.1,0.2-0.4,0-0.5L130.5,51.1z M120.2,39.6l0.5,0
	c0.1-0.1,0.1-0.4,0-0.5c-1,0-1.6,0.1-2.4,0.1c-0.8,0-1.5,0-2.4-0.1c-0.1,0.1-0.2,0.4,0,0.5l0.5,0c1.1,0.1,1.2,0.4,1.2,2.4v6.7
	c0,2,0,2.3-1.2,2.4l-0.5,0.1c-0.1,0.1-0.1,0.4,0,0.5c1,0,1.6-0.1,2.4-0.1c0.8,0,1.4,0,2.4,0.1c0.1-0.1,0.2-0.4,0-0.5l-0.5-0.1
	c-1.1-0.1-1.2-0.4-1.2-2.4V42C119.1,40,119.1,39.7,120.2,39.6z M110.5,38.1c-1.9,0-3,1.3-3.5,2.4c-0.5,1.1-0.6,2.2-0.6,3.3
	c0,0.2-0.1,0.3-0.3,0.4l-0.8,0.4c-0.1,0.1-0.1,0.3,0.1,0.4h0.7c0.4,0,0.4,0,0.4,0.5v4c0,1.4,0,1.5-0.7,1.6l-0.4,0.1
	c-0.1,0.1-0.1,0.4,0,0.5c0.6,0,1.2-0.1,1.9-0.1c0.7,0,1.2,0,2.1,0.1c0.1-0.1,0.2-0.4,0-0.5l-0.7-0.1c-0.7-0.1-0.7-0.3-0.7-1.6v-4
	c0-0.5,0-0.5,0.3-0.5h2.1c0.2-0.1,0.3-0.6,0.1-0.8h-2.2c-0.3,0-0.3,0-0.3-0.5v-0.5c0-0.9,0.1-2.3,0.4-3.2c0.3-0.7,0.8-1,1.4-1
	c0.6,0,1.2,0.4,1.5,0.8c0.1,0.1,0.3,0.2,0.5,0.2c0.4,0,0.7-0.3,0.7-0.7C112.4,38.6,111.5,38.1,110.5,38.1z M100,51.2
	c-1.7,0-2.5-1.8-2.5-3.6c0-2.1,0.9-3.2,2.2-3.2c1.8,0,2.5,2,2.5,3.6C102.2,49.5,101.7,51.2,100,51.2z M99.9,43.9
	c-2.3,0-4.1,1.7-4.1,4.1c0,2.3,1.7,3.9,4,3.9c2.4,0,4.1-1.7,4.1-4C103.9,45.5,102.1,43.9,99.9,43.9z M89.4,51.1
	c-0.7-0.1-0.7-0.3-0.7-1.6v-8.9c0-0.8,0-1.8,0.1-2.3c0-0.1-0.1-0.1-0.2-0.1c-0.7,0.4-1.6,0.6-2.1,0.8c-0.1,0.1-0.1,0.3,0,0.4
	l0.2,0.1c0.6,0.3,0.6,0.5,0.6,1.6v8.5c0,1.4,0,1.5-0.7,1.6l-0.4,0.1c-0.1,0.1-0.1,0.4,0,0.5c0.6,0,1.2-0.1,1.9-0.1
	c0.7,0,1.2,0,1.9,0.1c0.1-0.1,0.2-0.4,0-0.5L89.4,51.1z M81,51.2c-1.7,0-2.5-1.8-2.5-3.6c0-2.1,0.9-3.2,2.2-3.2c1.8,0,2.5,2,2.5,3.6
	C83.2,49.5,82.7,51.2,81,51.2z M80.9,43.9c-2.3,0-4.1,1.7-4.1,4.1c0,2.3,1.7,3.9,4,3.9c2.4,0,4.1-1.7,4.1-4
	C84.9,45.5,83.1,43.9,80.9,43.9z M71.6,51.2c-1.7,0-2.5-1.8-2.5-3.6c0-2.1,0.9-3.2,2.2-3.2c1.8,0,2.5,2,2.5,3.6
	C73.8,49.5,73.3,51.2,71.6,51.2z M71.5,43.9c-2.3,0-4.1,1.7-4.1,4.1c0,2.3,1.7,3.9,4,3.9c2.4,0,4.1-1.7,4.1-4
	C75.5,45.5,73.7,43.9,71.5,43.9z M65.8,51.1c-0.7-0.1-0.7-0.3-0.7-1.6v-3.1c0-1.3-0.7-2.4-2.5-2.4c-1,0-1.9,0.5-2.6,1
	c-0.1,0-0.1-0.2-0.1-0.4v-3.9c0-0.8,0-1.8,0.1-2.3c0-0.1-0.1-0.1-0.2-0.1c-0.7,0.4-1.6,0.6-2.1,0.8c-0.1,0.1-0.1,0.3,0,0.4l0.2,0.1
	c0.6,0.3,0.6,0.5,0.6,1.6v8.5c0,1.4,0,1.6-0.7,1.6l-0.5,0.1c-0.1,0.1-0.1,0.4,0,0.5c0.6,0,1.2-0.1,1.9-0.1c0.7,0,1.2,0,1.8,0.1
	c0.1-0.1,0.2-0.4,0-0.5l-0.4-0.1c-0.7-0.1-0.7-0.3-0.7-1.6v-3.2c0-0.7,0.1-0.8,0.4-1c0.3-0.3,0.9-0.5,1.5-0.5c1.2,0,1.8,0.8,1.8,2
	v2.7c0,1.4,0,1.5-0.7,1.6l-0.4,0.1c-0.1,0.1-0.1,0.4,0,0.5c0.5,0,1.1-0.1,1.8-0.1c0.7,0,1.2,0,1.9,0.1c0.1-0.1,0.2-0.4,0-0.5
	L65.8,51.1z M56.4,49.6c-0.4,0.6-1,1.1-2.1,1.1c-2.1,0-3.1-1.7-3.1-3.2c0-2,1.3-3,2.7-3c0.8,0,1.5,0.5,1.9,1
	c0.1,0.1,0.2,0.1,0.3,0.1c0.2,0,0.4-0.4,0.4-0.7c0-0.3-0.1-0.6-0.3-0.8c-0.5-0.2-1.3-0.3-1.7-0.3c-3.2,0-4.7,2.2-4.7,4.2
	c0,1.2,0.4,2.1,1.1,2.8c0.7,0.6,1.6,1,2.7,1c1.1,0,2.6-0.5,3.2-1.9C56.7,49.7,56.6,49.6,56.4,49.6z M45.6,44.8l-1.5-0.9
	c-0.7-0.5-1.6-1.2-1.6-2.3c0-0.9,0.4-2.1,2.3-2.1c1.9,0,2.4,1.2,2.6,2.1c0.1,0.1,0.4,0.1,0.5-0.1c0-0.8-0.2-1.8-0.3-2.3
	c-0.2,0-0.4-0.1-0.7-0.1c-0.5-0.2-1.2-0.2-1.8-0.2c-2.5,0-3.9,1.4-3.9,3.2c0,1.5,1.1,2.6,2.1,3.2l1.8,1.2c1.4,0.9,1.6,1.8,1.6,2.6
	c0,1.1-0.8,2.2-2.4,2.2c-2.2,0-3-1.8-3.3-2.8c-0.1-0.1-0.4-0.1-0.5,0.1c0,0.9,0.3,2.2,0.5,2.6c0.4,0.2,1.4,0.7,3,0.7
	c2.5,0,4.1-1.4,4.1-3.5C48.1,46.6,46.9,45.5,45.6,44.8z"></path>
</svg>